<?xml version="1.0" encoding="UTF-8" standalone="no"?>
<svg
   xmlns:dc="http://purl.org/dc/elements/1.1/"
   xmlns:cc="http://creativecommons.org/ns#"
   xmlns:rdf="http://www.w3.org/1999/02/22-rdf-syntax-ns#"
   xmlns:svg="http://www.w3.org/2000/svg"
   xmlns="http://www.w3.org/2000/svg"
   xmlns:sodipodi="http://sodipodi.sourceforge.net/DTD/sodipodi-0.dtd"
   xmlns:inkscape="http://www.inkscape.org/namespaces/inkscape"
   height="50.080002"
   width="228.66"
   viewBox="0 0 228.66 50.08"
   version="1.1"
   id="svg32"
   sodipodi:docname="navbar-logo.svg"
   inkscape:version="1.0 (4035a4fb49, 2020-05-01)">
  <metadata
     id="metadata38">
    <rdf:RDF>
      <cc:Work
         rdf:about="">
        <dc:format>image/svg+xml</dc:format>
        <dc:type
           rdf:resource="http://purl.org/dc/dcmitype/StillImage" />
        <dc:title />
      </cc:Work>
    </rdf:RDF>
  </metadata>
  <defs
     id="defs36" />
  <sodipodi:namedview
     inkscape:document-rotation="0"
     pagecolor="#ffffff"
     bordercolor="#666666"
     borderopacity="1"
     objecttolerance="10"
     gridtolerance="10"
     guidetolerance="10"
     inkscape:pageopacity="0"
     inkscape:pageshadow="2"
     inkscape:window-width="1920"
     inkscape:window-height="1013"
     id="namedview34"
     showgrid="false"
     inkscape:zoom="5.2829528"
     inkscape:cx="132.32702"
     inkscape:cy="19.540001"
     inkscape:window-x="-9"
     inkscape:window-y="-9"
     inkscape:window-maximized="1"
     inkscape:current-layer="text42" />
  <style
     id="style2">.cls-1{fill:#fed136;}</style>
  <g
     style="font-style:normal;font-weight:normal;font-size:32.5708px;line-height:1.25;font-family:sans-serif;fill:#fed136;fill-opacity:1;stroke:none;stroke-width:1.73104"
     id="text42"
     transform="scale(0.82197039,1.2165888)"
     aria-label="Library Manager">
    <path
       id="path9"
       style="font-style:normal;font-variant:normal;font-weight:normal;font-stretch:normal;font-size:32.5708px;font-family:'Segoe Print';-inkscape-font-specification:'Segoe Print';fill:#fed136;fill-opacity:1;stroke-width:1.73104"
       d="m 1.7960055,24.780918 q 0,-0.318075 0.4771113,-3.880506 Q 2.7502282,17.322077 3.1796284,12.598675 3.6090286,7.8593688 3.7203546,7.3027389 3.8475842,6.746109 4.2292733,6.3962274 4.6268661,6.0463457 5.4538591,6.0463457 q 0.5248225,0 0.938319,0.4453039 0.4134965,0.4453039 0.4134965,0.9701264 0,0.6838596 -0.2862669,2.2265196 -0.4134964,2.1151934 -1.208682,8.5880044 -0.7792819,6.47281 -0.7792819,7.331611 0,0.55663 0.1590371,0.763378 0.1749409,0.190844 0.6361485,0.190844 0.7474744,0 3.5306239,-0.461207 1.7176007,-0.270363 6.4887147,-0.524823 0.8588,-0.03181 2.115193,-0.365785 0.238556,-0.06362 0.349882,-0.06362 0.604341,0 0.954222,0.397593 0.349882,0.397593 0.349882,0.954222 0,0.906512 -0.699763,1.447238 -0.699763,0.524823 -1.558564,0.524823 -0.333978,0 -1.320008,-0.09542 -1.001934,-0.07952 -1.494949,-0.07952 -5.1846097,0 -10.0034342,1.622178 -0.8110893,0.270363 -1.4631415,0.270363 -0.715667,0 -1.1132598,-0.620244 -0.381689,-0.620245 -0.381689,-1.208682 0,-0.349882 0.3021705,-1.526757 0.3339779,-1.383622 0.4134965,-2.051578 z" />
    <path
       id="path11"
       style="font-style:normal;font-variant:normal;font-weight:normal;font-stretch:normal;font-size:32.5708px;font-family:'Segoe Print';-inkscape-font-specification:'Segoe Print';fill:#fed136;fill-opacity:1;stroke-width:1.73104"
       d="m 26.812544,7.9706948 q -0.333978,0 -0.508918,-0.715667 -0.06362,-0.222652 -0.174941,-0.4930151 -0.4294,-1.0337412 -0.4294,-1.7971194 0,-0.6361484 0.747474,-1.2882006 0.763378,-0.6679559 1.685793,-0.6679559 0.461208,0 1.033742,0.3657854 0.572533,0.3498817 0.572533,0.6838596 0,0.5248225 -0.397593,1.7812157 -0.381689,1.2563932 -1.240489,1.7016971 -0.842897,0.4294002 -1.288201,0.4294002 z M 24.729158,25.73514 q 0,1.208682 0.333978,2.719535 0.06361,0.286267 0.06361,0.477111 0,0.286267 -0.524823,0.731571 -0.524822,0.461208 -1.113259,0.461208 -1.54266,0 -1.54266,-2.830861 0,-2.926283 1.208682,-9.25596 0.413496,-2.210616 0.413496,-2.719535 0,-1.001933 0.365786,-1.701697 0.365785,-0.715667 1.033741,-0.715667 0.811089,0 1.272297,0.397593 0.477111,0.381689 0.477111,0.8588 0,0.477112 -0.222652,1.256394 -1.192778,4.198579 -1.479045,6.011603 -0.286267,1.813023 -0.286267,4.309905 z" />
    <path
       id="path13"
       style="font-style:normal;font-variant:normal;font-weight:normal;font-stretch:normal;font-size:32.5708px;font-family:'Segoe Print';-inkscape-font-specification:'Segoe Print';fill:#fed136;fill-opacity:1;stroke-width:1.73104"
       d="m 34.016926,20.216552 q 2.035675,-3.705564 4.866535,-5.995699 2.830861,-2.306038 5.105092,-2.306038 1.256393,0 2.131097,1.160971 0.874704,1.160971 0.874704,2.830861 0,4.946054 -3.737372,9.287767 -3.721469,4.32581 -7.872337,4.32581 -1.129164,0 -2.083386,-0.604341 -0.938319,-0.620245 -1.049645,-1.54266 -0.06361,-0.747475 -0.429401,-1.11326 -0.683859,-0.68386 -0.683859,-1.463142 0,-1.447237 0.795185,-6.186543 L 33.571622,9.0998583 Q 34.414518,4.3128412 34.796207,3.1836777 35.1938,2.0545142 35.670912,1.6728251 36.148023,1.291136 36.847786,1.291136 q 1.11326,0 1.11326,1.9243491 0,1.8289268 -1.224586,5.120995 -1.176874,3.1648389 -2.719534,11.8800719 z m -0.381689,5.295936 q 0.826992,1.54266 2.003867,1.54266 1.813023,0 3.832795,-1.494949 2.019771,-1.510852 3.482912,-4.230387 1.479045,-2.735438 1.479045,-4.612076 0,-0.842897 -0.30217,-1.447238 -0.302171,-0.604341 -0.763378,-0.604341 -2.210616,0 -5.407262,3.626046 -3.180742,3.610143 -4.325809,7.220285 z" />
    <path
       id="path15"
       style="font-style:normal;font-variant:normal;font-weight:normal;font-stretch:normal;font-size:32.5708px;font-family:'Segoe Print';-inkscape-font-specification:'Segoe Print';fill:#fed136;fill-opacity:1;stroke-width:1.73104"
       d="m 53.276322,22.951991 q 0.159037,-0.286267 0.381689,-0.795186 1.081452,-2.480979 1.987964,-3.880505 0.906511,-1.415431 1.987964,-2.703631 1.097356,-1.288201 1.987964,-1.956157 0.906511,-0.667956 1.638082,-0.922415 0.731571,-0.270363 1.41543,-0.270363 1.383623,0 2.258327,0.842897 0.874704,0.826993 0.874704,1.940252 0,0.493015 -0.318074,0.890608 -0.30217,0.397593 -0.938319,0.397593 -0.667956,0 -1.224586,-0.588437 -0.572533,-0.588438 -1.192778,-0.588438 -1.653986,0 -4.580269,4.007736 -2.926283,4.007735 -3.562431,8.826559 -0.159037,1.24049 -0.604341,1.638083 -0.445304,0.397592 -1.256393,0.397592 -0.779282,0 -1.129164,-1.16097 -0.349881,-1.160971 -0.349881,-3.912313 0,-0.747475 0.07952,-3.292069 0.09542,-3.005801 0.381689,-4.850632 0.04771,-0.30217 0.159037,-1.41543 0.111326,-1.224586 0.270363,-1.701697 0.174941,-0.477111 0.68386,-0.890608 0.524822,-0.413496 1.129163,-0.413496 0.588438,0 0.874705,0.381689 0.30217,0.365785 0.30217,0.795185 0,0.620245 -0.318074,1.749409 -0.365786,1.256393 -0.4294,1.733504 -0.04771,0.540726 -0.174941,1.129164 -0.159037,0.683859 -0.318074,3.594238 l -0.0159,0.588438 z" />
    <path
       id="path17"
       style="font-style:normal;font-variant:normal;font-weight:normal;font-stretch:normal;font-size:32.5708px;font-family:'Segoe Print';-inkscape-font-specification:'Segoe Print';fill:#fed136;fill-opacity:1;stroke-width:1.73104"
       d="m 77.386343,23.476813 q -2.226519,2.989898 -4.405328,4.484847 -2.178808,1.494949 -3.991831,1.494949 -1.224586,0 -2.115194,-1.033741 -0.890608,-1.033742 -0.890608,-2.65592 0,-4.182676 3.737373,-9.001501 3.737372,-4.834728 7.427033,-4.834728 1.335912,0 1.987964,1.526756 0.206748,0.508919 0.652052,0.508919 1.272297,0 1.272297,0.98603 0,0.493015 -0.159037,1.351816 -0.858801,4.691594 -0.858801,6.615943 0,3.848699 1.463142,4.612077 0.699763,0.381689 0.699763,0.938319 0,0.493015 -0.68386,0.98603 -0.683859,0.508919 -1.320008,0.508919 -1.224585,0 -2.019771,-1.685794 -0.795186,-1.685793 -0.795186,-4.802921 z m -0.970126,-8.953789 q -2.09929,0 -4.882439,3.94412 -2.78315,3.928217 -2.78315,6.520522 0,1.828927 1.208682,1.828927 1.749409,0 4.850632,-3.530624 3.101224,-3.530624 3.101224,-6.488714 0,-2.274231 -1.494949,-2.274231 z" />
    <path
       id="path19"
       style="font-style:normal;font-variant:normal;font-weight:normal;font-stretch:normal;font-size:32.5708px;font-family:'Segoe Print';-inkscape-font-specification:'Segoe Print';fill:#fed136;fill-opacity:1;stroke-width:1.73104"
       d="m 89.027863,22.951991 q 0.159037,-0.286267 0.381689,-0.795186 1.081452,-2.480979 1.987964,-3.880505 0.906512,-1.415431 1.987964,-2.703631 1.097356,-1.288201 1.987964,-1.956157 0.906511,-0.667956 1.638082,-0.922415 0.731571,-0.270363 1.41543,-0.270363 1.383623,0 2.258324,0.842897 0.87471,0.826993 0.87471,1.940252 0,0.493015 -0.31808,0.890608 -0.30217,0.397593 -0.93832,0.397593 -0.667952,0 -1.224581,-0.588437 -0.572534,-0.588438 -1.192779,-0.588438 -1.653986,0 -4.580269,4.007736 -2.926283,4.007735 -3.562431,8.826559 -0.159037,1.24049 -0.604341,1.638083 -0.445304,0.397592 -1.256393,0.397592 -0.779282,0 -1.129164,-1.16097 -0.349881,-1.160971 -0.349881,-3.912313 0,-0.747475 0.07952,-3.292069 0.09542,-3.005801 0.381689,-4.850632 0.04771,-0.30217 0.159037,-1.41543 0.111326,-1.224586 0.270363,-1.701697 0.174941,-0.477111 0.68386,-0.890608 0.524823,-0.413496 1.129164,-0.413496 0.588437,0 0.874704,0.381689 0.30217,0.365785 0.30217,0.795185 0,0.620245 -0.318074,1.749409 -0.365785,1.256393 -0.4294,1.733504 -0.04771,0.540726 -0.174941,1.129164 -0.159037,0.683859 -0.318074,3.594238 l -0.0159,0.588438 z" />
    <path
       id="path21"
       style="font-style:normal;font-variant:normal;font-weight:normal;font-stretch:normal;font-size:32.5708px;font-family:'Segoe Print';-inkscape-font-specification:'Segoe Print';fill:#fed136;fill-opacity:1;stroke-width:1.73104"
       d="m 114.17163,23.651754 q -2.92629,2.544594 -5.15281,3.705565 -2.21061,1.145067 -3.38749,1.145067 -1.57446,0 -2.41736,-1.304104 -0.82699,-1.320008 -0.82699,-3.069417 0,-2.449171 0.98603,-6.04341 1.00193,-3.610142 1.47904,-4.278098 0.49302,-0.68386 1.55856,-0.68386 0.44531,0 0.73158,0.524823 0.28626,0.524822 0.28626,1.192778 0,0.397593 -0.36578,1.033741 -0.8588,1.494949 -0.90651,1.653986 -0.0318,0.159037 -0.60435,1.924349 -0.57253,1.749409 -0.57253,3.292069 0,0.540726 0.25446,1.685793 0.27036,1.145067 1.09736,1.145067 0.8747,0 2.147,-0.524822 1.2882,-0.540726 2.89447,-1.749409 1.60628,-1.208682 2.16291,-1.956156 0.55663,-0.747474 0.77928,-1.701697 0.23855,-0.954223 0.33398,-4.134965 0.0954,-3.180742 1.54266,-3.180742 0.8588,0 1.11326,0.461207 0.25446,0.445304 0.25446,1.717601 0,1.049645 -0.14314,2.624113 -0.17494,1.987963 -0.22265,2.83086 -0.22265,4.373521 -1.14507,8.794752 -0.90651,4.405329 -2.65592,7.363419 -1.7494,2.973994 -4.81882,2.973994 -3.11713,0 -5.5504,-1.638082 -2.41736,-1.622179 -2.41736,-2.751342 0,-0.524823 0.23856,-1.033742 0.25446,-0.508918 0.63614,-0.508918 0.19085,0 0.4135,0.30217 2.08339,3.196646 6.55233,3.196646 2.30604,0 3.8646,-4.055446 1.57447,-4.039543 1.73351,-7.586071 0.0318,-0.683859 0.12723,-1.367719 z" />
    <path
       id="path23"
       style="font-style:normal;font-variant:normal;font-weight:normal;font-stretch:normal;font-size:32.5708px;font-family:'Segoe Print';-inkscape-font-specification:'Segoe Print';fill:#fed136;fill-opacity:1;stroke-width:1.73104"
       d="m 157.98635,10.515289 q -1.57447,1.749408 -4.86654,6.250158 -3.29207,4.484847 -4.62798,5.773047 -1.33591,1.288201 -2.19471,1.288201 -0.65205,0 -1.2723,-0.970126 -0.62024,-0.986031 -1.60627,-3.960025 -2.03568,-6.059314 -2.5605,-6.981729 -0.19084,0.540726 -0.4294,1.765312 -0.50892,2.576401 -1.35182,6.281966 -1.63808,7.108959 -1.86073,9.414997 -0.0318,0.286267 -0.52482,0.620245 -0.47711,0.333978 -0.77928,0.333978 -0.57254,0 -1.06555,-0.572534 -0.47711,-0.572533 -0.47711,-1.11326 0,-1.399526 0.92241,-4.882439 l 1.38362,-5.216417 q 1.2723,-4.930151 1.57447,-7.252093 0.30217,-2.3219414 0.30217,-3.6578532 0,-1.3836228 2.17881,-1.3836228 0.46121,0 0.97013,0.8110892 0.50892,0.7951856 0.66795,1.3995266 0.20675,0.6043411 0.49302,1.3518155 l 2.13109,5.9638917 q 1.2564,3.657854 1.54266,4.134965 0.30218,0.461208 0.49302,0.461208 0.81109,-0.174941 5.74124,-6.98173 5.48678,-7.5542625 6.26606,-7.5542625 0.63615,0 1.39953,0.5089187 0.77928,0.4930151 0.77928,0.8588004 0,0.1590372 -0.92242,6.9817294 -0.33397,2.52869 -0.62024,6.075218 -0.28627,3.530624 -0.28627,3.975927 0,0.81109 0.28627,1.813024 0.25446,0.890607 0.25446,1.431334 0,0.4294 -0.15904,1.256393 -0.15903,0.811089 -0.69976,0.954222 -0.52482,0.143134 -0.8429,0.143134 -1.66989,0 -1.66989,-2.78315 0,-2.544593 1.09736,-12.452606 0.0795,-0.795185 0.0795,-0.98603 0,-0.127229 0.19084,-1.065548 0.14314,-0.795186 0.14314,-1.335912 0,-0.524823 -0.0795,-0.699763 z" />
    <path
       id="path25"
       style="font-style:normal;font-variant:normal;font-weight:normal;font-stretch:normal;font-size:32.5708px;font-family:'Segoe Print';-inkscape-font-specification:'Segoe Print';fill:#fed136;fill-opacity:1;stroke-width:1.73104"
       d="m 176.30743,23.476813 q -2.22652,2.989898 -4.40533,4.484847 -2.1788,1.494949 -3.99183,1.494949 -1.22458,0 -2.11519,-1.033741 -0.89061,-1.033742 -0.89061,-2.65592 0,-4.182676 3.73737,-9.001501 3.73738,-4.834728 7.42704,-4.834728 1.33591,0 1.98796,1.526756 0.20675,0.508919 0.65205,0.508919 1.2723,0 1.2723,0.98603 0,0.493015 -0.15904,1.351816 -0.8588,4.691594 -0.8588,6.615943 0,3.848699 1.46314,4.612077 0.69977,0.381689 0.69977,0.938319 0,0.493015 -0.68386,0.98603 -0.68386,0.508919 -1.32001,0.508919 -1.22459,0 -2.01977,-1.685794 -0.79519,-1.685793 -0.79519,-4.802921 z m -0.97012,-8.953789 q -2.09929,0 -4.88244,3.94412 -2.78315,3.928217 -2.78315,6.520522 0,1.828927 1.20868,1.828927 1.74941,0 4.85063,-3.530624 3.10123,-3.530624 3.10123,-6.488714 0,-2.274231 -1.49495,-2.274231 z" />
    <path
       id="path27"
       style="font-style:normal;font-variant:normal;font-weight:normal;font-stretch:normal;font-size:32.5708px;font-family:'Segoe Print';-inkscape-font-specification:'Segoe Print';fill:#fed136;fill-opacity:1;stroke-width:1.73104"
       d="m 195.56681,17.03581 q -0.82699,0 -1.81302,1.081453 -0.97012,1.081452 -2.97399,4.850632 -2.64002,5.05738 -3.4193,5.757143 -0.76338,0.699763 -1.2723,0.699763 -1.87664,0 -1.87664,-1.813023 0,-0.763378 0.25446,-2.162904 0.87471,-4.802921 0.87471,-10.130665 0,-0.604341 0.50892,-1.335911 0.52482,-0.747475 0.98603,-0.747475 0.82699,0 1.17687,0.508919 0.34988,0.508919 0.34988,2.051579 0,1.606275 -0.95422,6.615944 -0.31807,1.653986 -0.31807,2.09929 0,0.254459 0.12723,0.254459 0.23855,0 2.21061,-3.800987 1.98797,-3.864602 3.48291,-5.439069 1.49495,-1.574468 3.29207,-1.574468 1.43134,0 2.32194,1.304105 0.90652,1.304104 1.32001,4.755209 0.44531,3.928217 0.79519,4.898343 0.36578,0.954223 1.14507,0.954223 0.49301,0 1.24049,-0.349882 0.12722,-0.06361 0.19084,-0.06361 0.68386,0 0.68386,0.795185 0,0.699763 -0.93832,1.494949 -0.93832,0.779282 -2.25833,0.779282 -1.35181,0 -2.09929,-1.065549 -0.73157,-1.081452 -1.16097,-5.74124 -0.4453,-4.675691 -1.87664,-4.675691 z" />
    <path
       id="path29"
       style="font-style:normal;font-variant:normal;font-weight:normal;font-stretch:normal;font-size:32.5708px;font-family:'Segoe Print';-inkscape-font-specification:'Segoe Print';fill:#fed136;fill-opacity:1;stroke-width:1.73104"
       d="m 217.08455,23.476813 q -2.22652,2.989898 -4.40533,4.484847 -2.17881,1.494949 -3.99183,1.494949 -1.22459,0 -2.1152,-1.033741 -0.8906,-1.033742 -0.8906,-2.65592 0,-4.182676 3.73737,-9.001501 3.73737,-4.834728 7.42703,-4.834728 1.33591,0 1.98797,1.526756 0.20674,0.508919 0.65205,0.508919 1.27229,0 1.27229,0.98603 0,0.493015 -0.15903,1.351816 -0.8588,4.691594 -0.8588,6.615943 0,3.848699 1.46314,4.612077 0.69976,0.381689 0.69976,0.938319 0,0.493015 -0.68386,0.98603 -0.68386,0.508919 -1.32001,0.508919 -1.22458,0 -2.01977,-1.685794 -0.79518,-1.685793 -0.79518,-4.802921 z m -0.97013,-8.953789 q -2.09929,0 -4.88244,3.94412 -2.78315,3.928217 -2.78315,6.520522 0,1.828927 1.20868,1.828927 1.74941,0 4.85064,-3.530624 3.10122,-3.530624 3.10122,-6.488714 0,-2.274231 -1.49495,-2.274231 z" />
    <path
       id="path31"
       style="font-style:normal;font-variant:normal;font-weight:normal;font-stretch:normal;font-size:32.5708px;font-family:'Segoe Print';-inkscape-font-specification:'Segoe Print';fill:#fed136;fill-opacity:1;stroke-width:1.73104"
       d="m 236.75743,23.508621 q -0.19085,-0.143134 -1.06555,0.890608 -1.44724,1.701697 -3.70557,3.021705 -2.24242,1.320008 -4.16677,1.320008 -1.43133,0 -2.24242,-0.890608 -0.81109,-0.906512 -0.81109,-2.496883 0,-2.465075 1.86073,-5.48678 1.86074,-3.037609 5.20052,-5.295936 3.35568,-2.258327 5.86846,-2.258327 1.32001,0 2.32195,0.763378 0.23855,0.190845 0.41349,0.318074 0.28627,0.206749 0.54073,0.842897 0.25446,0.620245 0.25446,1.001934 0,0.238556 -0.17494,0.731571 -0.97013,2.640016 -1.32001,4.37352 -0.34988,1.733505 -0.76338,5.836662 -0.38169,3.689661 -0.82699,5.677625 -0.44531,1.987964 -1.60628,3.848698 -1.16097,1.860735 -2.78315,2.78315 -1.62217,0.938319 -3.33977,0.938319 -2.974,0 -5.86847,-2.051579 -2.89448,-2.051579 -2.89448,-3.292068 0,-0.779282 0.58844,-0.779282 0.28626,0 1.70169,0.938319 3.73738,2.496883 6.72727,2.496883 2.60821,0 3.96003,-2.78315 1.36772,-2.783149 1.86073,-8.317641 0.11133,-1.256393 0.27037,-2.131097 z m -0.0318,-8.731138 q -1.35182,0 -3.38749,1.399527 -2.01977,1.399526 -3.92822,4.103157 -1.90844,2.703631 -1.90844,4.532558 0,0.620245 0.38169,0.98603 0.39759,0.349882 0.8747,0.349882 1.41543,0 3.68966,-1.463142 2.29013,-1.463141 3.92822,-4.055446 1.65398,-2.608209 1.65398,-4.087254 0,-1.765312 -1.3041,-1.765312 z" />
    <path
       id="path33"
       style="font-style:normal;font-variant:normal;font-weight:normal;font-stretch:normal;font-size:32.5708px;font-family:'Segoe Print';-inkscape-font-specification:'Segoe Print';fill:#fed136;fill-opacity:1;stroke-width:1.73104"
       d="m 257.82985,23.874406 q 0,1.622179 -2.87857,3.912313 -2.86267,2.290135 -5.91618,2.290135 -2.5605,0 -3.96002,-1.510853 -1.38363,-1.510853 -1.38363,-4.214484 0,-4.548461 3.06942,-8.651619 3.06942,-4.103157 6.71137,-4.103157 1.19277,0 1.94025,0.779282 0.76338,0.779282 0.76338,1.876638 0,2.449171 -2.40146,4.691595 -2.40146,2.242423 -6.4251,4.405328 -0.827,0.4294 -0.827,1.113259 0,1.320008 0.76338,2.115194 0.76338,0.795186 2.25833,0.795186 3.4193,0 6.98173,-3.785084 0.52482,-0.524822 0.79518,-0.524822 0.50892,0 0.50892,0.811089 z m -11.05308,-2.480979 q 6.74318,-4.007735 6.74318,-6.441003 0,-0.954223 -0.8588,-0.954223 -1.46314,0 -3.30798,2.147001 -1.82892,2.147001 -2.5764,5.248225 z" />
    <path
       id="path35"
       style="font-style:normal;font-variant:normal;font-weight:normal;font-stretch:normal;font-size:32.5708px;font-family:'Segoe Print';-inkscape-font-specification:'Segoe Print';fill:#fed136;fill-opacity:1;stroke-width:1.73104"
       d="m 264.35037,22.951991 q 0.15903,-0.286267 0.38168,-0.795186 1.08146,-2.480979 1.98797,-3.880505 0.90651,-1.415431 1.98796,-2.703631 1.09736,-1.288201 1.98797,-1.956157 0.90651,-0.667956 1.63808,-0.922415 0.73157,-0.270363 1.41543,-0.270363 1.38362,0 2.25833,0.842897 0.8747,0.826993 0.8747,1.940252 0,0.493015 -0.31807,0.890608 -0.30218,0.397593 -0.93832,0.397593 -0.66796,0 -1.22459,-0.588437 -0.57253,-0.588438 -1.19278,-0.588438 -1.65398,0 -4.58027,4.007736 -2.92628,4.007735 -3.56243,8.826559 -0.15903,1.24049 -0.60434,1.638083 -0.4453,0.397592 -1.25639,0.397592 -0.77928,0 -1.12917,-1.16097 -0.34988,-1.160971 -0.34988,-3.912313 0,-0.747475 0.0795,-3.292069 0.0954,-3.005801 0.38169,-4.850632 0.0477,-0.30217 0.15904,-1.41543 0.11132,-1.224586 0.27036,-1.701697 0.17494,-0.477111 0.68386,-0.890608 0.52482,-0.413496 1.12916,-0.413496 0.58844,0 0.87471,0.381689 0.30217,0.365785 0.30217,0.795185 0,0.620245 -0.31808,1.749409 -0.36578,1.256393 -0.4294,1.733504 -0.0477,0.540726 -0.17494,1.129164 -0.15903,0.683859 -0.31807,3.594238 l -0.0159,0.588438 z" />
  </g>
</svg>
